<?xml version="1.0" standalone="no"?>
<!DOCTYPE svg PUBLIC "-//W3C//DTD SVG 20010904//EN"
 "http://www.w3.org/TR/2001/REC-SVG-20010904/DTD/svg10.dtd">
<svg version="1.0" xmlns="http://www.w3.org/2000/svg"
 width="200.000000pt" height="200.000000pt" viewBox="0 0 200.000000 200.000000"
 preserveAspectRatio="xMidYMid meet">
<metadata>
Created by potrace 1.10, written by Peter Selinger 2001-2011
</metadata>
<g transform="translate(0.000000,200.000000) scale(0.100000,-0.100000)"
fill="#000000" stroke="none">
<path d="M801 1480 c-11 -19 -21 -51 -21 -70 0 -36 49 -152 69 -164 6 -4 8
-12 5 -18 -5 -7 -2 -8 5 -3 9 5 10 10 2 18 -6 6 -11 20 -11 32 0 12 -4 25 -9
31 -6 5 -13 24 -16 43 -5 30 -4 33 10 21 8 -7 15 -21 15 -32 0 -10 11 -31 25
-46 14 -15 24 -31 22 -37 -2 -5 4 -16 13 -25 9 -8 14 -14 12 -13 -3 1 -10 -3
-17 -10 -27 -26 -52 -44 -68 -50 -15 -6 -22 -26 -18 -50 1 -5 -2 -6 -6 -4 -13
8 -21 -98 -11 -151 8 -39 4 -35 43 -54 37 -19 65 -15 87 11 16 21 34 29 23 11
-3 -5 -1 -10 5 -10 6 0 9 -4 6 -9 -3 -5 5 -16 19 -25 22 -15 25 -15 38 4 8 11
17 17 22 12 5 -4 5 -2 1 5 -10 19 12 26 34 10 11 -8 18 -16 15 -19 -9 -9 29
-7 56 3 51 19 70 88 53 191 -4 24 -11 35 -18 31 -6 -4 -4 2 4 12 8 10 10 16 4
12 -14 -8 -47 26 -37 38 5 4 2 5 -4 1 -7 -4 -20 2 -30 13 -9 11 -19 18 -23 16
-10 -6 -5 32 6 47 28 35 62 106 56 113 -4 5 -1 4 7 0 11 -6 13 -4 8 8 -3 10
-2 17 4 17 6 0 7 5 3 12 -4 7 -3 8 4 4 11 -6 8 -22 -15 -76 -6 -16 -7 -19 -18
-65 l-7 -30 21 25 c25 31 61 122 61 156 0 33 -28 86 -43 81 -6 -2 -16 -23 -22
-48 -16 -61 -46 -125 -87 -186 -37 -54 -37 -66 -1 -77 33 -11 91 -80 103 -126
21 -78 -13 -159 -62 -147 -20 5 -28 16 -35 44 -6 26 -14 38 -26 37 -23 -2 -21
9 5 25 l22 13 -25 14 c-29 16 -68 18 -103 4 -31 -11 -33 -26 -6 -35 25 -8 26
-25 1 -18 -15 4 -20 -2 -25 -30 -20 -108 -114 -46 -102 67 7 64 44 119 95 142
22 11 41 25 41 32 0 7 -13 32 -29 55 -42 62 -62 104 -87 182 l-22 69 -21 -34z
m224 -507 c10 -13 9 -22 -1 -42 -8 -14 -14 -33 -15 -41 0 -8 -9 5 -20 29 -15
33 -17 47 -8 57 15 19 29 18 44 -3z"/>
<path d="M696 1399 c-22 -31 -20 -87 3 -123 11 -16 39 -44 62 -63 23 -18 36
-33 29 -33 -16 0 -107 55 -136 82 -21 18 -22 18 -26 0 -8 -29 20 -86 51 -105
16 -10 48 -17 73 -16 23 0 37 3 29 6 -11 4 -8 10 10 23 l23 18 -37 44 c-58 66
-59 68 -53 83 2 7 1 16 -5 19 -5 2 -4 3 3 2 7 -2 12 -11 10 -20 -2 -9 1 -15 5
-14 4 2 10 -1 12 -7 5 -13 73 -64 85 -65 4 0 -8 21 -29 46 -21 25 -50 68 -65
96 l-27 50 -17 -23z"/>
<path d="M1275 1383 c-14 -34 -77 -120 -99 -135 -6 -4 -7 -10 -3 -14 9 -10 83
51 80 65 -2 6 0 10 5 10 21 -4 32 3 33 19 0 10 2 12 6 4 4 -11 -33 -71 -61
-97 -6 -6 -20 -21 -31 -34 l-20 -24 31 16 c51 26 114 102 114 137 0 28 -24 90
-35 90 -3 0 -12 -17 -20 -37z"/>
<path d="M1340 1251 c-19 -16 -60 -41 -90 -57 -47 -25 -52 -29 -31 -32 19 -3
21 -6 10 -14 -10 -6 3 -8 40 -5 46 4 59 10 83 36 19 22 28 42 28 66 0 19 -1
35 -2 35 -2 -1 -19 -13 -38 -29z"/>
<path d="M886 1120 c-47 -52 -50 -87 -3 -43 17 17 42 36 55 42 12 7 22 18 22
26 0 28 -38 15 -74 -25z"/>
<path d="M1047 1154 c-9 -10 4 -34 19 -34 8 0 32 -16 54 -36 43 -39 48 -38 25
6 -24 46 -79 83 -98 64z"/>
<path d="M794 1129 c-5 -8 -35 -10 -96 -7 l-90 6 6 -31 c23 -113 82 -211 159
-263 82 -57 150 -76 247 -72 109 5 186 38 257 111 70 73 101 132 116 222 l6
31 -95 -1 c-72 0 -90 -3 -79 -11 9 -6 39 -15 67 -18 29 -4 56 -12 59 -18 9
-14 -26 -96 -54 -127 -12 -13 -15 -21 -7 -17 8 5 -5 -11 -29 -35 -25 -24 -48
-44 -51 -44 -4 0 -14 -8 -24 -17 -10 -10 -23 -18 -31 -18 -7 0 -25 -6 -39 -14
-14 -7 -61 -14 -103 -15 -42 -1 -81 -5 -86 -8 -6 -4 -7 -1 -2 7 6 10 3 12 -13
8 -12 -4 -22 -3 -22 0 0 4 -22 17 -50 30 -27 13 -50 27 -50 32 0 6 -5 10 -12
10 -16 0 -79 70 -72 81 3 5 -1 12 -10 15 -8 3 -12 12 -9 20 3 8 1 14 -4 14
-12 0 -36 67 -28 79 3 6 27 13 53 16 56 8 102 24 102 36 0 12 -7 11 -16 -2z"/>
<path d="M1360 940 c-8 -18 -37 -56 -65 -84 -183 -183 -480 -158 -627 54 -46
64 -49 55 -7 -18 43 -75 101 -129 177 -165 61 -29 76 -32 167 -32 89 0 107 3
162 29 41 18 81 48 116 85 55 57 101 133 95 153 -3 7 -10 -4 -18 -22z"/>
</g>
</svg>
